# xmcd
#
# Track frame offsets:
#	150
#	25018
#	65427
#	81951
#	101843
#	136358
#	158901
#	188289
#	206249
#	249547
#	275036
#	293636
#	323590
#
# Disc length: 4609 seconds
#
# Revision: 0
# Processed by: cddbd v1.4PL0 Copyright (c) Steve Scherf et al.
# Submitted via: audiograbber 1.81.00
#
DISCID=b711ff0d
DTITLE=Varios Blues AGGL - Better Days VIII
DYEAR=2001
DGENRE=Blues
TTITLE0=I'm Gonna Crawl - Led Zeppelin (In Through The Out Door)
TTITLE1=Don't Lie to Me - Albert King with Stevie Ray Vaughan
TTITLE2=Maybe - Janis Joplin
TTITLE3=Hi De Ho - Blood, Sweat and Tears
TTITLE4=Blues For Narada - Gary Moore
TTITLE5=Lenny - Stevie Ray Vaughan and Double Trouble (Texas Flood)
TTITLE6=Honey Bee - Savoy Brown (Getting To The Point)
TTITLE7=Getting to the Point - Savoy Brown (Getting to the Point)
TTITLE8=Voodoo Chili (Slight Return) - Stevie Ray Vaughan and Double Trouble (Liv
TTITLE8=e Alive)
TTITLE9=Layla - Eric Clapton (Crossroads 2)
TTITLE10=Look At Little Sister - Stevie Ray Vaughan and Double Trouble (Live Aliv
TTITLE10=e)
TTITLE11=Bell Bottom Blues - Eric Clapton (24 Nights)
TTITLE12=Ramblin' Man - The Allman Brothers Band
EXTD=Editado por Bartleby, El Escribiente en Puebla, Puebla, México\nB_elescrib
EXTD=iente@hotmail.com\n
EXTT0=
EXTT1=
EXTT2=
EXTT3=
EXTT4=
EXTT5=
EXTT6=
EXTT7=
EXTT8=
EXTT9=
EXTT10=
EXTT11=
EXTT12=
PLAYORDER=
